<svg version="1.1" id="Layer_1" xmlns="http://www.w3.org/2000/svg" xmlns:xlink="http://www.w3.org/1999/xlink" x="0px" y="0px"
	 width="100%" viewBox="0 0 366 256" enable-background="new 0 0 366 256" xml:space="preserve">
<path fill="#FCFCFC" opacity="1.000000" stroke="none" 
	d="
M233.000000,257.000000 
	C155.333359,257.000000 78.166710,257.000000 1.000052,257.000000 
	C1.000035,171.666718 1.000035,86.333427 1.000017,1.000109 
	C122.999916,1.000073 244.999832,1.000073 366.999817,1.000036 
	C366.999878,86.333221 366.999878,171.666443 366.999939,256.999817 
	C322.500000,257.000000 278.000000,257.000000 233.000000,257.000000 
M299.059937,17.046463 
	C220.911255,17.028126 142.762589,16.999603 64.613907,16.997709 
	C41.412884,16.997147 24.627224,33.719872 24.598722,56.993137 
	C24.540154,104.815041 24.537075,152.637146 24.599998,200.459030 
	C24.630571,223.694138 41.343311,240.373642 64.694931,240.389511 
	C147.009598,240.445450 229.324387,240.442429 311.639069,240.385010 
	C334.565277,240.369019 351.347412,223.512314 351.371552,200.595139 
	C351.421936,152.772934 351.424072,104.950600 351.369904,57.128414 
	C351.342316,32.752743 333.343353,15.846036 308.119507,17.010786 
	C305.408142,17.071024 302.696747,17.131262 299.059937,17.046463 
z"/>
<path fill="#232931" opacity="1.000000" stroke="none" 
	d="
M309.012482,17.160980 
	C333.343353,15.846036 351.342316,32.752743 351.369904,57.128414 
	C351.424072,104.950600 351.421936,152.772934 351.371552,200.595139 
	C351.347412,223.512314 334.565277,240.369019 311.639069,240.385010 
	C229.324387,240.442429 147.009598,240.445450 64.694931,240.389511 
	C41.343311,240.373642 24.630571,223.694138 24.599998,200.459030 
	C24.537075,152.637146 24.540154,104.815041 24.598722,56.993137 
	C24.627224,33.719872 41.412884,16.997147 64.613907,16.997709 
	C142.762589,16.999603 220.911255,17.028126 299.552490,17.419607 
	C300.363373,18.528631 300.681702,19.264509 300.608917,19.991848 
	C293.643738,18.410254 292.677917,19.041679 290.421967,26.387671 
	C285.036896,27.673874 285.036896,27.673874 283.522186,32.875599 
	C210.927979,32.959427 138.795639,32.951977 66.663376,33.015308 
	C63.367065,33.018200 59.943943,33.209389 56.803219,34.100243 
	C51.181747,35.694740 49.596470,41.393887 53.242176,45.963394 
	C55.100655,48.292805 57.184578,50.442345 59.017830,52.988937 
	C57.795395,54.886024 57.075466,57.201576 55.585728,57.919312 
	C49.701942,60.754032 49.068130,61.886990 51.220467,67.716919 
	C45.037407,66.368134 42.685753,67.773514 39.716843,74.012207 
	C37.218830,76.007095 35.105965,78.002235 32.687561,80.155914 
	C30.528543,84.225082 32.868694,87.350182 37.728767,87.233215 
	C36.460644,85.113708 35.232780,83.061485 34.247517,80.854027 
	C36.342293,81.130951 38.194469,81.563110 40.169788,82.450531 
	C40.318619,115.401085 40.362583,147.896393 40.347084,180.391663 
	C40.345123,184.499390 41.054314,188.168365 45.363007,189.777893 
	C49.386692,191.280960 52.240246,189.307968 54.989315,186.409622 
	C69.778320,170.817398 84.712578,155.363068 99.540077,139.807175 
	C102.281937,136.930618 105.192719,135.063950 109.226746,136.851562 
	C114.929909,139.378799 115.991539,145.580948 111.416306,150.383926 
	C92.455818,170.288239 73.356544,190.061539 54.559101,210.118073 
	C52.730011,212.069717 51.242332,216.185974 52.083683,218.313904 
	C53.064610,220.794861 56.553150,222.772369 59.379948,223.889175 
	C61.877316,224.875809 64.960419,224.517365 67.784981,224.518280 
	C148.108871,224.544571 228.432755,224.544098 308.756653,224.527924 
	C311.083557,224.527451 313.418213,224.392548 315.735565,224.174698 
	C319.609924,223.810532 323.576569,222.473755 324.021545,218.361572 
	C324.323120,215.574600 322.983917,211.769165 321.024628,209.703278 
	C285.829407,172.593491 250.497986,135.611908 215.034515,98.757980 
	C201.127075,84.305244 174.794800,84.533653 160.779297,98.892120 
	C154.844955,104.971687 149.043213,111.180466 143.140869,117.291580 
	C138.911713,121.670341 134.465836,122.258423 130.919815,119.006912 
	C127.021103,115.432022 127.204735,110.887238 131.542770,106.329826 
	C137.515671,100.054832 143.479736,93.768997 149.566940,87.605690 
	C170.116867,66.798836 206.269455,66.810715 226.604141,87.885040 
	C258.183533,120.613091 289.577667,153.520111 320.985138,186.413544 
	C323.735565,189.294128 326.584778,191.301498 330.611206,189.791855 
	C334.648346,188.278183 335.588531,184.903519 335.582703,180.901642 
	C335.531860,146.072479 335.523712,111.243164 335.585388,76.414032 
	C335.592560,72.359543 334.485657,69.203224 330.541229,67.548965 
	C326.585876,65.890114 323.837555,67.999077 321.314728,70.627434 
	C314.393677,77.838074 307.497284,85.072411 300.589294,92.295601 
	C292.298492,100.964645 284.045685,109.670547 275.694000,118.280540 
	C272.432648,121.642769 268.214813,121.961639 264.909760,119.396881 
	C261.656525,116.872337 260.638916,112.497604 262.780914,109.165916 
	C263.846008,107.509239 265.330597,106.107132 266.707275,104.668205 
	C284.672943,85.890358 302.660553,67.133499 320.621704,48.351326 
	C323.165985,45.690754 325.836914,43.075375 324.206848,38.753666 
	C322.477814,34.169727 318.523499,33.426865 314.494843,33.124451 
	C310.018738,32.788445 305.509735,32.891018 300.967041,32.463364 
	C300.520813,30.703260 299.735321,29.262360 299.807739,27.865946 
	C299.944397,25.230316 300.574829,22.620287 301.287201,20.139843 
	C302.582123,21.052471 303.589874,21.824875 304.855042,22.794607 
	C306.355225,20.761776 307.683838,18.961378 309.012482,17.160980 
z"/>
<path fill="#30363E" opacity="1.000000" stroke="none" 
	d="
M301.000000,20.000393 
	C300.681702,19.264509 300.363373,18.528631 300.015198,17.492126 
	C302.696747,17.131262 305.408142,17.071024 308.565979,17.085884 
	C307.683838,18.961378 306.355225,20.761776 304.855042,22.794607 
	C303.589874,21.824875 302.582123,21.052471 301.287201,20.140034 
	C301.000000,20.000000 301.000000,20.000397 301.000000,20.000393 
z"/>
<path fill="#FCFCFC" opacity="1.000000" stroke="none" 
	d="
M59.166595,52.673187 
	C57.184578,50.442345 55.100655,48.292805 53.242176,45.963394 
	C49.596470,41.393887 51.181747,35.694740 56.803219,34.100243 
	C59.943943,33.209389 63.367065,33.018200 66.663376,33.015308 
	C138.795639,32.951977 210.927979,32.959427 283.956787,32.952019 
	C286.906799,32.899914 288.960327,32.849106 291.341187,32.863052 
	C292.107513,32.872715 292.546539,32.817627 293.423523,32.854996 
	C296.246033,32.899185 298.630554,32.850918 301.015045,32.802650 
	C305.509735,32.891018 310.018738,32.788445 314.494843,33.124451 
	C318.523499,33.426865 322.477814,34.169727 324.206848,38.753666 
	C325.836914,43.075375 323.165985,45.690754 320.621704,48.351326 
	C302.660553,67.133499 284.672943,85.890358 266.707275,104.668205 
	C265.330597,106.107132 263.846008,107.509239 262.780914,109.165916 
	C260.638916,112.497604 261.656525,116.872337 264.909760,119.396881 
	C268.214813,121.961639 272.432648,121.642769 275.694000,118.280540 
	C284.045685,109.670547 292.298492,100.964645 300.589294,92.295601 
	C307.497284,85.072411 314.393677,77.838074 321.314728,70.627434 
	C323.837555,67.999077 326.585876,65.890114 330.541229,67.548965 
	C334.485657,69.203224 335.592560,72.359543 335.585388,76.414032 
	C335.523712,111.243164 335.531860,146.072479 335.582703,180.901642 
	C335.588531,184.903519 334.648346,188.278183 330.611206,189.791855 
	C326.584778,191.301498 323.735565,189.294128 320.985138,186.413544 
	C289.577667,153.520111 258.183533,120.613091 226.604141,87.885040 
	C206.269455,66.810715 170.116867,66.798836 149.566940,87.605690 
	C143.479736,93.768997 137.515671,100.054832 131.542770,106.329826 
	C127.204735,110.887238 127.021103,115.432022 130.919815,119.006912 
	C134.465836,122.258423 138.911713,121.670341 143.140869,117.291580 
	C149.043213,111.180466 154.844955,104.971687 160.779297,98.892120 
	C174.794800,84.533653 201.127075,84.305244 215.034515,98.757980 
	C250.497986,135.611908 285.829407,172.593491 321.024628,209.703278 
	C322.983917,211.769165 324.323120,215.574600 324.021545,218.361572 
	C323.576569,222.473755 319.609924,223.810532 315.735565,224.174698 
	C313.418213,224.392548 311.083557,224.527451 308.756653,224.527924 
	C228.432755,224.544098 148.108871,224.544571 67.784981,224.518280 
	C64.960419,224.517365 61.877316,224.875809 59.379948,223.889175 
	C56.553150,222.772369 53.064610,220.794861 52.083683,218.313904 
	C51.242332,216.185974 52.730011,212.069717 54.559101,210.118073 
	C73.356544,190.061539 92.455818,170.288239 111.416306,150.383926 
	C115.991539,145.580948 114.929909,139.378799 109.226746,136.851562 
	C105.192719,135.063950 102.281937,136.930618 99.540077,139.807175 
	C84.712578,155.363068 69.778320,170.817398 54.989315,186.409622 
	C52.240246,189.307968 49.386692,191.280960 45.363007,189.777893 
	C41.054314,188.168365 40.345123,184.499390 40.347084,180.391663 
	C40.362583,147.896393 40.318619,115.401085 40.305000,82.023529 
	C40.245380,78.764999 40.173687,76.388725 40.101994,74.012459 
	C42.685753,67.773514 45.037407,66.368134 51.301407,67.874428 
	C53.531509,69.723122 55.290710,71.298325 57.199394,73.175064 
	C87.887367,105.355972 118.328209,137.329666 149.001862,169.078445 
	C166.732956,187.431015 196.205521,191.241028 217.235336,176.677872 
	C227.483734,169.580795 235.723923,159.547089 244.704468,150.672012 
	C248.931580,146.494568 248.876480,142.011475 245.100464,138.398132 
	C241.608627,135.056778 237.459213,135.393524 233.328430,139.590485 
	C227.602493,145.408127 221.970551,151.319153 216.344299,157.233887 
	C206.126785,167.975266 193.550079,171.170853 179.386276,168.307068 
	C169.891388,166.387299 162.544479,161.226044 155.867126,153.815765 
	C138.813171,134.889893 120.869263,116.764328 103.227501,98.370293 
	C90.901222,85.518410 78.486053,72.751770 65.995361,59.631165 
	C63.642296,57.101238 61.404446,54.887211 59.166595,52.673187 
M202.633453,124.704956 
	C196.561523,126.192322 191.269699,124.869888 187.490341,119.763802 
	C183.044556,113.757339 184.368546,107.626129 188.252167,101.653023 
	C175.058929,101.598022 163.893448,110.525154 161.260193,122.906906 
	C158.590912,135.458115 165.279312,148.463211 177.116165,153.737610 
	C188.530197,158.823608 202.776047,154.873718 210.096283,144.593399 
	C216.472717,135.638474 217.093033,122.791161 212.077774,117.323845 
	C209.155746,119.721619 206.279480,122.081841 202.633453,124.704956 
z"/>
<path fill="#30363E" opacity="1.000000" stroke="none" 
	d="
M291.013794,32.798290 
	C288.960327,32.849106 286.906799,32.899914 284.418701,32.874306 
	C285.036896,27.673874 285.036896,27.673874 290.421967,26.387671 
	C292.677917,19.041679 293.643738,18.410254 300.608887,19.991852 
	C301.000000,20.000397 301.000000,20.000000 301.000000,19.999809 
	C300.574829,22.620287 299.944397,25.230316 299.807739,27.865946 
	C299.735321,29.262360 300.520813,30.703260 300.967041,32.463364 
	C298.630554,32.850918 296.246033,32.899185 293.473785,32.555470 
	C293.723602,31.776085 294.361206,31.388683 295.121277,31.204723 
	C295.590424,31.392986 295.937073,31.377810 296.283752,31.362629 
	C295.856232,31.241295 295.428741,31.119961 294.967102,30.663340 
	C294.328857,29.686913 293.724731,29.045773 293.120605,28.404625 
	C292.418335,29.869171 291.716064,31.333729 291.013794,32.798290 
z"/>
<path fill="#343A41" opacity="1.000000" stroke="none" 
	d="
M59.017830,52.988934 
	C61.404446,54.887211 63.642296,57.101238 65.682884,59.781067 
	C63.794159,60.868763 62.102688,61.490662 60.486740,62.084793 
	C59.367203,65.599205 58.208561,69.236359 57.049919,72.873520 
	C55.290710,71.298325 53.531509,69.723122 51.691360,67.990417 
	C49.068130,61.886990 49.701942,60.754032 55.585728,57.919312 
	C57.075466,57.201576 57.795395,54.886024 59.017830,52.988934 
z"/>
<path fill="#333942" opacity="1.000000" stroke="none" 
	d="
M39.716843,74.012207 
	C40.173687,76.388725 40.245380,78.764999 40.181862,81.568268 
	C38.194469,81.563110 36.342293,81.130951 34.136871,80.633087 
	C33.581879,80.291740 33.318371,80.101730 32.993099,79.997368 
	C35.105965,78.002235 37.218830,76.007095 39.716843,74.012207 
z"/>
<path fill="#313741" opacity="1.000000" stroke="none" 
	d="
M32.687561,80.155914 
	C33.318371,80.101730 33.581879,80.291740 33.894272,80.788330 
	C35.232780,83.061485 36.460644,85.113708 37.728767,87.233215 
	C32.868694,87.350182 30.528543,84.225082 32.687561,80.155914 
z"/>
<path fill="#272C33" opacity="1.000000" stroke="none" 
	d="
M57.199394,73.175064 
	C58.208561,69.236359 59.367203,65.599205 60.486740,62.084793 
	C62.102688,61.490662 63.794159,60.868763 65.798111,60.096962 
	C78.486053,72.751770 90.901222,85.518410 103.227501,98.370293 
	C120.869263,116.764328 138.813171,134.889893 155.867126,153.815765 
	C162.544479,161.226044 169.891388,166.387299 179.386276,168.307068 
	C193.550079,171.170853 206.126785,167.975266 216.344299,157.233887 
	C221.970551,151.319153 227.602493,145.408127 233.328430,139.590485 
	C237.459213,135.393524 241.608627,135.056778 245.100464,138.398132 
	C248.876480,142.011475 248.931580,146.494568 244.704468,150.672012 
	C235.723923,159.547089 227.483734,169.580795 217.235336,176.677872 
	C196.205521,191.241028 166.732956,187.431015 149.001862,169.078445 
	C118.328209,137.329666 87.887367,105.355972 57.199394,73.175064 
M159.634415,167.976532 
	C161.651947,165.311005 161.896225,162.453201 158.886978,160.708420 
	C154.780716,158.327637 152.644638,161.676270 151.215454,163.454147 
	C153.895065,166.752197 156.399017,169.834015 159.610031,173.786087 
	C159.437637,171.138550 159.355682,169.879791 159.634415,167.976532 
z"/>
<path fill="#252B32" opacity="1.000000" stroke="none" 
	d="
M203.018341,124.573502 
	C206.279480,122.081841 209.155746,119.721619 212.077774,117.323845 
	C217.093033,122.791161 216.472717,135.638474 210.096283,144.593399 
	C202.776047,154.873718 188.530197,158.823608 177.116165,153.737610 
	C165.279312,148.463211 158.590912,135.458115 161.260193,122.906906 
	C163.893448,110.525154 175.058929,101.598022 188.252167,101.653023 
	C184.368546,107.626129 183.044556,113.757339 187.490341,119.763802 
	C191.269699,124.869888 196.561523,126.192322 203.018341,124.573502 
z"/>
<path fill="#232931" opacity="1.000000" stroke="none" 
	d="
M291.341156,32.863045 
	C291.716064,31.333729 292.418335,29.869171 293.120605,28.404625 
	C293.724731,29.045773 294.328857,29.686913 294.966492,30.664026 
	C295.000000,31.000000 294.998779,31.001282 294.998779,31.001282 
	C294.361206,31.388683 293.723602,31.776085 293.035767,32.463013 
	C292.546539,32.817627 292.107513,32.872715 291.341156,32.863045 
z"/>
<path fill="#232931" opacity="1.000000" stroke="none" 
	d="
M295.000610,30.999313 
	C295.428741,31.119961 295.856232,31.241295 296.283752,31.362629 
	C295.937073,31.377810 295.590424,31.392986 295.121277,31.204723 
	C294.998779,31.001282 295.000000,31.000000 295.000610,30.999313 
z"/>
<path fill="#32373F" opacity="1.000000" stroke="none" 
	d="
M159.454071,168.298782 
	C159.355682,169.879791 159.437637,171.138550 159.610031,173.786087 
	C156.399017,169.834015 153.895065,166.752197 151.215454,163.454147 
	C152.644638,161.676270 154.780716,158.327637 158.886978,160.708420 
	C161.896225,162.453201 161.651947,165.311005 159.454071,168.298782 
z"/>
</svg>